<svg width="18" height="18" viewBox="0 0 18 18" fill="none" xmlns="http://www.w3.org/2000/svg">
<path d="M15.75 12H5.25C5.05109 12 4.86032 11.921 4.71967 11.7803C4.57902 11.6397 4.5 11.4489 4.5 11.25C4.5 11.0511 4.57902 10.8603 4.71967 10.7197C4.86032 10.579 5.05109 10.5 5.25 10.5H13.08C13.5815 10.5 14.0686 10.3325 14.464 10.0241C14.8594 9.71562 15.1405 9.28392 15.2625 8.7975L16.5 3.93C16.5281 3.81931 16.5305 3.70366 16.5071 3.59188C16.4837 3.4801 16.4351 3.37514 16.365 3.285C16.2921 3.19255 16.1984 3.11857 16.0915 3.06906C15.9847 3.01955 15.8677 2.99589 15.75 3H5.07C4.91527 2.56234 4.62895 2.18325 4.2503 1.9147C3.87165 1.64616 3.41921 1.5013 2.955 1.5H2.25C2.05109 1.5 1.86032 1.57902 1.71967 1.71967C1.57902 1.86032 1.5 2.05109 1.5 2.25C1.5 2.44891 1.57902 2.63968 1.71967 2.78033C1.86032 2.92098 2.05109 3 2.25 3H2.955C3.12633 2.99501 3.29419 3.04885 3.43065 3.15256C3.56712 3.25627 3.66394 3.40359 3.705 3.57L3.75 3.93L5.0475 9C4.45076 9.02685 3.88913 9.28966 3.48617 9.7306C3.0832 10.1715 2.8719 10.7545 2.89875 11.3512C2.9256 11.948 3.18841 12.5096 3.62935 12.9126C4.0703 13.3156 4.65326 13.5269 5.25 13.5H5.385C5.26165 13.8398 5.22202 14.2044 5.26945 14.5628C5.31688 14.9212 5.44998 15.263 5.65749 15.559C5.86499 15.8551 6.14079 16.0968 6.46151 16.2637C6.78224 16.4305 7.13846 16.5176 7.5 16.5176C7.86154 16.5176 8.21776 16.4305 8.53849 16.2637C8.85921 16.0968 9.13501 15.8551 9.34251 15.559C9.55002 15.263 9.68312 14.9212 9.73055 14.5628C9.77798 14.2044 9.73835 13.8398 9.615 13.5H11.385C11.2617 13.8398 11.222 14.2044 11.2694 14.5628C11.3169 14.9212 11.45 15.263 11.6575 15.559C11.865 15.8551 12.1408 16.0968 12.4615 16.2637C12.7822 16.4305 13.1385 16.5176 13.5 16.5176C13.8615 16.5176 14.2178 16.4305 14.5385 16.2637C14.8592 16.0968 15.135 15.8551 15.3425 15.559C15.55 15.263 15.6831 14.9212 15.7306 14.5628C15.778 14.2044 15.7383 13.8398 15.615 13.5H15.75C15.9489 13.5 16.1397 13.421 16.2803 13.2803C16.421 13.1397 16.5 12.9489 16.5 12.75C16.5 12.5511 16.421 12.3603 16.2803 12.2197C16.1397 12.079 15.9489 12 15.75 12ZM14.79 4.5L13.8075 8.43C13.7664 8.59641 13.6696 8.74373 13.5332 8.84744C13.3967 8.95115 13.2288 9.00499 13.0575 9H6.585L5.46 4.5H14.79ZM7.5 15C7.35166 15 7.20666 14.956 7.08332 14.8736C6.95999 14.7912 6.86386 14.6741 6.80709 14.537C6.75032 14.4 6.73547 14.2492 6.76441 14.1037C6.79335 13.9582 6.86478 13.8246 6.96967 13.7197C7.07456 13.6148 7.2082 13.5434 7.35368 13.5144C7.49917 13.4855 7.64997 13.5003 7.78701 13.5571C7.92406 13.6139 8.04119 13.71 8.1236 13.8333C8.20601 13.9567 8.25 14.1017 8.25 14.25C8.25 14.4489 8.17098 14.6397 8.03033 14.7803C7.88968 14.921 7.69891 15 7.5 15ZM13.5 15C13.3517 15 13.2067 14.956 13.0833 14.8736C12.96 14.7912 12.8639 14.6741 12.8071 14.537C12.7503 14.4 12.7355 14.2492 12.7644 14.1037C12.7934 13.9582 12.8648 13.8246 12.9697 13.7197C13.0746 13.6148 13.2082 13.5434 13.3537 13.5144C13.4992 13.4855 13.65 13.5003 13.787 13.5571C13.9241 13.6139 14.0412 13.71 14.1236 13.8333C14.206 13.9567 14.25 14.1017 14.25 14.25C14.25 14.4489 14.171 14.6397 14.0303 14.7803C13.8897 14.921 13.6989 15 13.5 15Z" fill="#3E3E40"/>
</svg>
