<svg width="18" height="18" viewBox="0 0 18 18" fill="none" xmlns="http://www.w3.org/2000/svg">
<path d="M14.9999 6L10.4999 2.055C10.0874 1.68604 9.5534 1.48206 8.99995 1.48206C8.4465 1.48206 7.91247 1.68604 7.49995 2.055L2.99995 6C2.76173 6.21306 2.57162 6.47442 2.4423 6.76669C2.31298 7.05895 2.24741 7.37542 2.24995 7.695V14.25C2.24995 14.8467 2.487 15.419 2.90896 15.841C3.33092 16.263 3.90321 16.5 4.49995 16.5H13.4999C14.0967 16.5 14.669 16.263 15.0909 15.841C15.5129 15.419 15.7499 14.8467 15.7499 14.25V7.6875C15.7514 7.36918 15.6853 7.05416 15.556 6.76327C15.4268 6.47237 15.2372 6.21222 14.9999 6ZM10.4999 15H7.49995V11.25C7.49995 11.0511 7.57897 10.8603 7.71962 10.7197C7.86027 10.579 8.05104 10.5 8.24995 10.5H9.74995C9.94886 10.5 10.1396 10.579 10.2803 10.7197C10.4209 10.8603 10.4999 11.0511 10.4999 11.25V15ZM14.2499 14.25C14.2499 14.4489 14.1709 14.6397 14.0303 14.7803C13.8896 14.921 13.6989 15 13.4999 15H11.9999V11.25C11.9999 10.6533 11.7629 10.081 11.3409 9.65901C10.919 9.23706 10.3467 9 9.74995 9H8.24995C7.65321 9 7.08092 9.23706 6.65896 9.65901C6.237 10.081 5.99995 10.6533 5.99995 11.25V15H4.49995C4.30104 15 4.11027 14.921 3.96962 14.7803C3.82897 14.6397 3.74995 14.4489 3.74995 14.25V7.6875C3.75008 7.58102 3.77289 7.47578 3.81686 7.37879C3.86083 7.2818 3.92495 7.19529 4.00495 7.125L8.50495 3.1875C8.64182 3.06727 8.81777 3.00095 8.99995 3.00095C9.18213 3.00095 9.35808 3.06727 9.49495 3.1875L13.9949 7.125C14.075 7.19529 14.1391 7.2818 14.183 7.37879C14.227 7.47578 14.2498 7.58102 14.2499 7.6875V14.25Z" fill="#3E3E40"/>
</svg>
