<svg width="18" height="18" viewBox="0 0 18 18" fill="none" xmlns="http://www.w3.org/2000/svg">
<path d="M16.5 5.86501C16.5036 5.81758 16.5036 5.76994 16.5 5.72251L15 1.97251C14.9414 1.82428 14.8371 1.69856 14.7023 1.6136C14.5674 1.52864 14.409 1.48885 14.25 1.50001H3.75C3.59979 1.49986 3.453 1.54483 3.32864 1.62907C3.20428 1.71331 3.10808 1.83296 3.0525 1.97251L1.5525 5.72251C1.54888 5.76994 1.54888 5.81758 1.5525 5.86501C1.52758 5.90676 1.50983 5.95239 1.5 6.00001C1.50835 6.51844 1.65092 7.02586 1.91381 7.47277C2.1767 7.91968 2.55093 8.29083 3 8.55001V15.75C3 15.9489 3.07902 16.1397 3.21967 16.2803C3.36032 16.421 3.55109 16.5 3.75 16.5H14.25C14.4489 16.5 14.6397 16.421 14.7803 16.2803C14.921 16.1397 15 15.9489 15 15.75V8.58001C15.4534 8.31824 15.8304 7.94238 16.0936 7.48976C16.3567 7.03715 16.4968 6.52355 16.5 6.00001C16.507 5.95528 16.507 5.90974 16.5 5.86501ZM9.75 15H8.25V12H9.75V15ZM13.5 15H11.25V11.25C11.25 11.0511 11.171 10.8603 11.0303 10.7197C10.8897 10.579 10.6989 10.5 10.5 10.5H7.5C7.30109 10.5 7.11032 10.579 6.96967 10.7197C6.82902 10.8603 6.75 11.0511 6.75 11.25V15H4.5V9.00001C4.9271 8.9976 5.34876 8.90402 5.73679 8.72553C6.12481 8.54704 6.47025 8.28775 6.75 7.96501C7.03153 8.28423 7.37775 8.53989 7.76569 8.71501C8.15362 8.89013 8.57437 8.9807 9 8.9807C9.42563 8.9807 9.84638 8.89013 10.2343 8.71501C10.6222 8.53989 10.9685 8.28423 11.25 7.96501C11.5297 8.28775 11.8752 8.54704 12.2632 8.72553C12.6512 8.90402 13.0729 8.9976 13.5 9.00001V15ZM13.5 7.50001C13.1022 7.50001 12.7206 7.34197 12.4393 7.06067C12.158 6.77937 12 6.39783 12 6.00001C12 5.8011 11.921 5.61033 11.7803 5.46968C11.6397 5.32903 11.4489 5.25001 11.25 5.25001C11.0511 5.25001 10.8603 5.32903 10.7197 5.46968C10.579 5.61033 10.5 5.8011 10.5 6.00001C10.5 6.39783 10.342 6.77937 10.0607 7.06067C9.77936 7.34197 9.39782 7.50001 9 7.50001C8.60218 7.50001 8.22064 7.34197 7.93934 7.06067C7.65804 6.77937 7.5 6.39783 7.5 6.00001C7.5 5.8011 7.42098 5.61033 7.28033 5.46968C7.13968 5.32903 6.94891 5.25001 6.75 5.25001C6.55109 5.25001 6.36032 5.32903 6.21967 5.46968C6.07902 5.61033 6 5.8011 6 6.00001C6.00739 6.19699 5.9759 6.3935 5.90735 6.57832C5.83879 6.76313 5.7345 6.93263 5.60043 7.07715C5.46637 7.22166 5.30515 7.33835 5.12599 7.42055C4.94683 7.50276 4.75323 7.54887 4.55625 7.55626C4.15843 7.57118 3.77097 7.42745 3.47911 7.15669C3.3346 7.02263 3.21791 6.86141 3.13571 6.68225C3.0535 6.50309 3.00739 6.30949 3 6.11251L4.26 3.00001H13.74L15 6.11251C14.9716 6.49052 14.8011 6.84375 14.5228 7.10116C14.2445 7.35858 13.8791 7.50108 13.5 7.50001Z" fill="#3E3E40"/>
</svg>
