<svg width="18" height="18" viewBox="0 0 18 18" fill="none" xmlns="http://www.w3.org/2000/svg">
<path d="M6.5325 5.78248L8.25 4.05748V11.25C8.25 11.4489 8.32902 11.6397 8.46967 11.7803C8.61032 11.921 8.80109 12 9 12C9.19891 12 9.38968 11.921 9.53033 11.7803C9.67098 11.6397 9.75 11.4489 9.75 11.25V4.05748L11.4675 5.78248C11.5372 5.85278 11.6202 5.90858 11.7116 5.94665C11.803 5.98473 11.901 6.00433 12 6.00433C12.099 6.00433 12.197 5.98473 12.2884 5.94665C12.3798 5.90858 12.4628 5.85278 12.5325 5.78248C12.6028 5.71276 12.6586 5.62981 12.6967 5.53842C12.7347 5.44702 12.7543 5.34899 12.7543 5.24998C12.7543 5.15097 12.7347 5.05295 12.6967 4.96155C12.6586 4.87016 12.6028 4.78721 12.5325 4.71748L9.5325 1.71748C9.46117 1.6492 9.37706 1.59568 9.285 1.55998C9.1024 1.48497 8.8976 1.48497 8.715 1.55998C8.62294 1.59568 8.53883 1.6492 8.4675 1.71748L5.4675 4.71748C5.39757 4.78741 5.3421 4.87043 5.30426 4.9618C5.26641 5.05316 5.24693 5.15109 5.24693 5.24998C5.24693 5.34888 5.26641 5.4468 5.30426 5.53817C5.3421 5.62954 5.39757 5.71255 5.4675 5.78248C5.53743 5.85241 5.62045 5.90788 5.71181 5.94573C5.80318 5.98357 5.90111 6.00305 6 6.00305C6.09889 6.00305 6.19682 5.98357 6.28819 5.94573C6.37955 5.90788 6.46257 5.85241 6.5325 5.78248ZM15.75 10.5C15.5511 10.5 15.3603 10.579 15.2197 10.7197C15.079 10.8603 15 11.0511 15 11.25V14.25C15 14.4489 14.921 14.6397 14.7803 14.7803C14.6397 14.921 14.4489 15 14.25 15H3.75C3.55109 15 3.36032 14.921 3.21967 14.7803C3.07902 14.6397 3 14.4489 3 14.25V11.25C3 11.0511 2.92098 10.8603 2.78033 10.7197C2.63968 10.579 2.44891 10.5 2.25 10.5C2.05109 10.5 1.86032 10.579 1.71967 10.7197C1.57902 10.8603 1.5 11.0511 1.5 11.25V14.25C1.5 14.8467 1.73705 15.419 2.15901 15.841C2.58097 16.2629 3.15326 16.5 3.75 16.5H14.25C14.8467 16.5 15.419 16.2629 15.841 15.841C16.2629 15.419 16.5 14.8467 16.5 14.25V11.25C16.5 11.0511 16.421 10.8603 16.2803 10.7197C16.1397 10.579 15.9489 10.5 15.75 10.5Z" fill="#3E3E40"/>
</svg>
